<?xml version="1.0" standalone="no"?>
<!DOCTYPE svg PUBLIC "-//W3C//DTD SVG 20010904//EN"
 "http://www.w3.org/TR/2001/REC-SVG-20010904/DTD/svg10.dtd">
<svg version="1.0" xmlns="http://www.w3.org/2000/svg"
 width="276.000000pt" height="276.000000pt" viewBox="0 0 276.000000 276.000000"
 preserveAspectRatio="xMidYMid meet">
<metadata>
Created by potrace 1.14, written by Peter Selinger 2001-2017
</metadata>
<g transform="translate(0.000000,276.000000) scale(0.100000,-0.100000)"
fill="#000000" stroke="none">
<path d="M1526 2750 c-66 -20 -112 -96 -99 -164 25 -130 193 -158 263 -44 64
106 -45 244 -164 208z m107 -81 c37 -40 36 -82 -2 -120 -48 -48 -116 -38 -147
22 -19 37 -11 79 19 106 45 41 87 39 130 -8z"/>
<path d="M1315 2673 c-100 -21 -189 -68 -266 -141 -88 -82 -113 -138 -107
-238 7 -98 49 -187 125 -262 73 -73 133 -102 211 -102 85 0 114 40 78 108 -20
39 -51 64 -136 111 -88 49 -125 86 -139 138 -28 103 45 204 242 336 48 33 87
61 87 63 0 6 -19 4 -95 -13z"/>
<path d="M1674 2352 c-80 -45 -124 -108 -124 -180 -1 -241 347 -282 411 -48
22 82 -32 189 -115 227 -51 23 -131 24 -172 1z"/>
<path d="M1851 1754 c-50 -36 1 -118 132 -213 45 -32 95 -72 110 -89 l28 -29
-48 -35 c-76 -56 -181 -118 -278 -164 -84 -40 -87 -44 -53 -44 50 0 262 37
323 56 161 52 240 135 214 226 -27 99 -277 308 -369 308 -19 0 -46 -7 -59 -16z"/>
<path d="M1121 1428 c-77 -21 -167 -105 -292 -273 -90 -122 -119 -179 -119
-240 0 -44 2 -47 37 -61 67 -28 101 -10 244 134 127 129 190 205 226 277 39
76 41 136 5 150 -43 18 -70 21 -101 13z"/>
<path d="M1332 1235 c-59 -26 -111 -74 -189 -179 -155 -207 -663 -1005 -663
-1041 0 -16 679 638 794 764 191 210 268 380 201 446 -28 29 -89 33 -143 10z"/>
</g>
</svg>
